<svg width="953" height="717" viewBox="0 0 953 717" fill="none" xmlns="http://www.w3.org/2000/svg">
<g filter="url(#filter0_f_82_1066)">
<path d="M88.5827 352.526C88.2063 370.397 84.0528 392 79.6354 405.678C69.4795 437.126 40.4818 449.099 25.9517 480.38C15.0348 503.882 2.57443 525.162 8.5 550.5C11.6777 564.088 11.0938 564 17 577.5C19.1875 582.5 22 588.5 39 606C55.5 618 83.2865 627.142 99.3194 627.32C116.315 627.508 133.323 627.32 150.319 627.32C188.199 627.32 225.937 626.014 263.552 631.014C288.289 634.302 311.279 637.161 335.528 643.532C356.475 649.036 376.698 656.289 397.463 662.413C424.69 670.442 451.729 678.238 479.579 683.653C500.567 687.735 520.693 695.676 541.713 699.353C578.293 705.752 612.582 714.664 649.677 709.409C677.744 705.433 707.419 699.89 732.787 686.424C753.181 675.598 771.007 654.133 784.681 635.529C799.159 615.83 807.542 593.038 824.447 575.193C841.527 557.163 860.503 541.671 877.733 523.887C894.882 506.186 910.181 487.278 924.259 466.63C930.673 457.222 931.947 449.431 937 439C941.194 430.343 947.147 418.617 946 406C944.853 393.383 943.943 392.5 939.966 380.641C939.966 380.641 933.5 371 924.159 357.553C915.459 345.029 891.494 324.075 870.973 315.996C844.474 305.563 821.628 288.064 796.313 275.567C775.247 265.168 758.775 245.893 748.494 224.671C738.335 203.699 729.208 176.444 729.208 152.638C729.208 144.426 727.419 136.56 727.419 128.524C727.419 122.065 728.927 113.642 725.629 107.899C717.573 93.8669 713.793 87.991 696.898 83.3751C658.043 72.7589 613.095 85.9103 575.315 95.3806C529.79 106.792 482.196 128.385 435.041 130.371C352.769 133.837 290.317 75.6798 229.85 26.1177C204.695 5.49892 170.826 1.62994 140.079 10.4182C107.047 19.8597 81.9832 50.4889 66.3139 80.6046C35.6792 139.483 50.2141 208.617 68.9981 269.205C77.2325 295.765 89.178 324.262 88.5827 352.526Z" fill="#BDF7E8" fill-opacity="0.86"/>
</g>
<defs>
<filter id="filter0_f_82_1066" x="0.970947" y="0" width="951.173" height="717" filterUnits="userSpaceOnUse" color-interpolation-filters="sRGB">
<feFlood flood-opacity="0" result="BackgroundImageFix"/>
<feBlend mode="normal" in="SourceGraphic" in2="BackgroundImageFix" result="shape"/>
<feGaussianBlur stdDeviation="3" result="effect1_foregroundBlur_82_1066"/>
</filter>
</defs>
</svg>
